<?xml version="1.0" encoding="UTF-8" standalone="no"?>
<!-- Created with Inkscape (http://www.inkscape.org/) -->

<svg
   xmlns:dc="http://purl.org/dc/elements/1.1/"
   xmlns:cc="http://creativecommons.org/ns#"
   xmlns:rdf="http://www.w3.org/1999/02/22-rdf-syntax-ns#"
   xmlns:svg="http://www.w3.org/2000/svg"
   xmlns="http://www.w3.org/2000/svg"
   xmlns:xlink="http://www.w3.org/1999/xlink"
   xmlns:sodipodi="http://sodipodi.sourceforge.net/DTD/sodipodi-0.dtd"
   xmlns:inkscape="http://www.inkscape.org/namespaces/inkscape"
   sodipodi:docname="wownerujo-app-icon.svg"
   inkscape:version="0.92.3 (2405546, 2018-03-11)"
   id="svg8"
   version="1.1"
   viewBox="0 0 270.93333 270.93333"
   height="1024"
   width="1024"
   inkscape:export-filename="/home/jinjing/scm/wownerujo-res/ic_wownero_logo_card_no_text.png"
   inkscape:export-xdpi="451.25137"
   inkscape:export-ydpi="451.25137">
  <sodipodi:namedview
     inkscape:window-maximized="0"
     inkscape:window-y="0"
     inkscape:window-x="0"
     inkscape:window-height="1078"
     inkscape:window-width="1918"
     width="1024px"
     units="px"
     showgrid="false"
     inkscape:current-layer="svg8"
     inkscape:document-units="mm"
     inkscape:cy="534.7423"
     inkscape:cx="535.58931"
     inkscape:zoom="1.0193832"
     inkscape:pageshadow="2"
     inkscape:pageopacity="0.0"
     borderopacity="1.0"
     bordercolor="#666666"
     pagecolor="#ffffff"
     id="base" />
  <defs
     id="defs2">
    <linearGradient
       id="linearGradient4546"
       inkscape:collect="always">
      <stop
         id="stop4542"
         offset="0"
         style="stop-color:#ff25d5;stop-opacity:1" />
      <stop
         id="stop4544"
         offset="1"
         style="stop-color:#ffcd00;stop-opacity:1" />
    </linearGradient>
    <linearGradient
       gradientTransform="matrix(0.45825437,0,0,0.4880835,78.666846,82.221743)"
       gradientUnits="userSpaceOnUse"
       y2="105.58501"
       x2="225.64752"
       y1="205.68903"
       x1="43.943615"
       id="linearGradient4552"
       xlink:href="#linearGradient4546"
       inkscape:collect="always" />
    <clipPath
       clipPathUnits="userSpaceOnUse"
       id="clipPath1468">
      <use
         x="0"
         y="0"
         xlink:href="#g1464"
         id="use1470"
         width="100%"
         height="100%" />
    </clipPath>
  </defs>
  <metadata
     id="metadata5">
    <rdf:RDF>
      <cc:Work
         rdf:about="">
        <dc:format>image/svg+xml</dc:format>
        <dc:type
           rdf:resource="http://purl.org/dc/dcmitype/StillImage" />
        <dc:title></dc:title>
      </cc:Work>
    </rdf:RDF>
  </metadata>
  <g
     transform="translate(0,-26.066667)"
     id="layer1"
     inkscape:groupmode="layer"
     inkscape:label="Layer 1">
    <path
       inkscape:connector-curvature="0"
       id="rect4539"
       d="m 100.61091,131.49072 h 81.23822 c 1.20821,0 2.18089,1.09432 2.18089,2.45364 v 49.07272 c 0,1.35932 -0.97268,2.45364 -2.18089,2.45364 h -81.23822 c -1.208212,0 -2.180888,-1.09432 -2.180888,-2.45364 v -49.07272 c 0,-1.35932 0.972676,-2.45364 2.180888,-2.45364 z"
       style="opacity:1;fill:url(#linearGradient4552);fill-opacity:1;fill-rule:evenodd;stroke:none;stroke-width:0.23733424;stroke-miterlimit:4;stroke-dasharray:none;stroke-opacity:1" />
    <path
       style="opacity:0.204;fill:#ffffff;fill-opacity:1;fill-rule:evenodd;stroke:none;stroke-width:0.89701128;stroke-miterlimit:4;stroke-dasharray:none;stroke-opacity:1"
       d="M 380.26172 398.45312 C 375.69524 398.45312 372.01953 402.58898 372.01953 407.72656 L 372.01953 445.92188 A 245.24873 135.76522 0 0 1 522.91016 398.45312 L 380.26172 398.45312 z M 597.75781 398.45312 A 245.24873 135.76522 0 0 1 695.54688 419.17383 L 695.54688 407.72656 C 695.54688 402.58898 691.87115 398.45312 687.30469 398.45312 L 597.75781 398.45312 z "
       transform="matrix(0.26458333,0,0,0.26458333,0,26.066667)"
       id="path6819" />
    <rect
       style="opacity:0;fill:#ffffff;fill-opacity:1;fill-rule:evenodd;stroke:#ffcd00;stroke-width:0.52916664;stroke-miterlimit:4;stroke-dasharray:none;stroke-opacity:1"
       id="rect6843"
       width="77.454689"
       height="1.8241146"
       x="103.64712"
       y="142.83894"
       rx="0"
       ry="0" />
    <text
       xml:space="preserve"
       style="font-style:normal;font-weight:normal;font-size:10.58333302px;line-height:125%;font-family:sans-serif;letter-spacing:0px;word-spacing:0px;fill:#000000;fill-opacity:1;stroke:none;stroke-width:0.26458332px;stroke-linecap:butt;stroke-linejoin:miter;stroke-opacity:1"
       x="207.01361"
       y="177.73097"
       id="text6871"><tspan
         sodipodi:role="line"
         id="tspan6869"
         x="207.01361"
         y="187.09474"
         style="stroke-width:0.26458332px" /></text>
  </g>
  <g
     id="g1466"
     clip-path="url(#clipPath1468)"
     transform="matrix(0.49220817,0,0,0.49220817,32.080129,93.767127)"
     style="fill:#ffffff">
    <g
       inkscape:label="Clip"
       id="g1464"
       style="fill:#ffffff">
      <path
         inkscape:connector-curvature="0"
         id="path1458"
         d="M 204.93407,68.926019 V 58.690827 h -8.20962 -8.20961 l 1.25982,-1.852698 c 2.12538,-3.125606 6.9913,-7.855617 10.50001,-10.206733 3.89997,-2.613302 7.93604,-4.378955 12.73054,-5.569209 4.35086,-1.080121 12.82857,-1.178157 17.13157,-0.198109 9.49166,2.161818 17.76225,7.538783 23.42475,15.229161 l 1.76903,2.402567 -8.23143,0.105267 -8.23144,0.105268 v 10.227435 10.227435 l -8.29171,-8.284984 c -4.56044,-4.556741 -8.46424,-8.284983 -8.6751,-8.284983 -0.21087,0 -4.11466,3.728242 -8.6751,8.284983 l -8.29171,8.284984 z"
         style="color:#000000;clip-rule:nonzero;display:inline;overflow:visible;visibility:visible;opacity:1;isolation:auto;mix-blend-mode:normal;color-interpolation:sRGB;color-interpolation-filters:linearRGB;solid-color:#000000;solid-opacity:1;fill:#ffffff;fill-opacity:1;fill-rule:nonzero;stroke:none;stroke-width:0.39004168px;stroke-linecap:butt;stroke-linejoin:miter;stroke-miterlimit:4;stroke-dasharray:none;stroke-dashoffset:0;stroke-opacity:1;color-rendering:auto;image-rendering:auto;shape-rendering:auto;text-rendering:auto;enable-background:accumulate" />
      <path
         inkscape:connector-curvature="0"
         id="path1460"
         d="m 213.90502,117.61217 c -13.83515,-2.92178 -25.08325,-13.17001 -29.36974,-26.75899 -2.2216,-7.042914 -2.38915,-15.189149 -0.45093,-21.923759 l 0.58934,-2.047719 h 5.83973 5.83973 v 16.672066 16.672062 l 12.77608,-12.77168 12.77608,-12.771681 12.67189,12.676388 c 6.96954,6.972012 12.80454,12.676393 12.96667,12.676393 0.16213,0 0.29478,-7.464244 0.29478,-16.587204 V 66.860848 l 5.72872,0.107937 5.72872,0.107938 0.7193,2.730292 c 0.97013,3.68242 1.31733,10.918905 0.71991,15.004683 -2.02718,13.863955 -11.53913,25.870772 -24.48714,30.909812 -6.76315,2.63205 -15.37988,3.36119 -22.34314,1.89066 z"
         style="color:#000000;clip-rule:nonzero;display:inline;overflow:visible;visibility:visible;opacity:1;isolation:auto;mix-blend-mode:normal;color-interpolation:sRGB;color-interpolation-filters:linearRGB;solid-color:#000000;solid-opacity:1;fill:#ffffff;fill-opacity:1;fill-rule:nonzero;stroke:none;stroke-width:0.39004168px;stroke-linecap:butt;stroke-linejoin:miter;stroke-miterlimit:4;stroke-dasharray:none;stroke-dashoffset:0;stroke-opacity:1;color-rendering:auto;image-rendering:auto;shape-rendering:auto;text-rendering:auto;enable-background:accumulate" />
    </g>
  </g>
</svg>
